<?xml version="1.0" encoding="utf-8"?>
<svg xmlns="http://www.w3.org/2000/svg" viewBox="0 0 636.4 187.1">
  <defs>
    <style>.cls-1{fill:#fff;}.cls-2{fill:#b0dff9;}.cls-3{fill:#35393a;}.cls-4{fill:#34393b;}.cls-5{fill:none;stroke:#34393b;stroke-miterlimit:10;stroke-width:2px;}</style>
  </defs>
  <g id="Ebene_1">
    <path class="cls-2" d="m359.8,109.9c28.1,0,50.9-23,50.9-51.3s-22.8-51.3-50.9-51.3-50.9,23-50.9,51.3,22.8,51.3,50.9,51.3M76.5,50.3c2.4-3.7,5.2-6.5,8.5-8.4,3.3-1.9,6.9-2.9,10.8-2.9,6.8,0,11.9,2.1,15.5,6.3,3.5,4.2,5.3,10.3,5.3,18.4v36.2h-19v-31c0-.5,0-.9,0-1.4,0-.5,0-1.2,0-2.1,0-4.2-.6-7.3-1.8-9.2-1.2-1.9-3.2-2.8-6-2.8s-6.3,1.5-8.3,4.5c-1.9,3-3,7.3-3,12.9v29.2h-19v-31c0-6.6-.6-10.8-1.7-12.7-1.1-1.9-3.1-2.8-6-2.8s-6.4,1.5-8.4,4.5c-2,3-2.9,7.3-2.9,12.8v29.2h-19v-59.4h19v8.7c2.3-3.4,5-5.9,8-7.6,3-1.7,6.3-2.5,9.9-2.5s7.7,1,10.8,3c3.1,2,5.5,4.8,7.1,8.3m58.8-9.9h18.8v59.4h-18.8v-59.4h0Zm0-23.1h18.8v15.5h-18.8v-15.5h0Zm58.6,6.3v16.9h19.4v13.6h-19.4v25.2c0,2.8.5,4.6,1.6,5.6,1.1,1,3.2,1.5,6.5,1.5h9.7v13.6h-16.2c-7.4,0-12.7-1.6-15.8-4.7-3.1-3.1-4.7-8.4-4.7-15.9v-25.2h-9.4v-13.6h9.4v-16.9h18.9Zm32.9-2.9h22.6l28.6,54.3V20.7h19.2v79.2h-22.6l-28.6-54.3v54.3h-19.2V20.7h0Zm225.2,35.1c4.2,0,7.3-.8,9.1-2.4,1.8-1.6,2.8-4.2,2.8-7.9s-.9-6.2-2.8-7.7c-1.8-1.6-4.9-2.3-9.1-2.3h-8.5v20.3h8.5Zm-8.5,14.1v30h-20.3V20.7h31c10.4,0,17.9,1.8,22.8,5.3,4.8,3.5,7.2,9,7.2,16.6s-1.3,9.5-3.8,12.9c-2.5,3.4-6.3,5.8-11.3,7.4,2.8.6,5.3,2.1,7.5,4.3,2.2,2.2,4.4,5.7,6.7,10.2l11,22.5h-21.6l-9.6-19.7c-1.9-4-3.9-6.7-5.9-8.1-2-1.4-4.6-2.2-7.9-2.2h-5.7Zm66-49.2h25.8l17.9,42.4,18-42.4h25.7v79.2h-19.2v-57.9l-18.1,42.7h-12.8l-18.1-42.7v57.9h-19.2V20.7h0Z"/>
    <polygon class="cls-1" points="393.4 47.3 371 47.3 371 24.7 348.6 24.7 348.6 47.3 326.2 47.3 326.2 69.9 348.6 69.9 348.6 92.5 371 92.5 371 69.9 393.4 69.9 393.4 47.3 393.4 47.3"/>
    <path class="cls-4" d="m49.8,138.6v2.2h-9.5v6.2h6.9v2.2h-6.9v8.4h-2.2v-19h11.8Z"/>
    <path class="cls-4" d="m58.4,138.6h2.2v19h-2.2v-19Z"/>
    <path class="cls-4" d="m85,156.2l.4,1.4h-2.4l-.2-.8c-.6-2-1.2-3.6-1.7-4.7-.6-1.3-1.4-2.2-2.3-2.9h-5.6v8.4h-2.2v-17.9s0-1.1,0-1.1h8.2c1.5,0,2.7.4,3.8,1.3,1.3,1.1,2,2.4,2,4s-.1,1.2-.3,1.8c-.5,1.4-1.5,2.4-3,3.1,1.1,1.3,2.2,3.8,3.3,7.4Zm-9.3-9.2h3.6c.7,0,1.3-.2,1.9-.5,1-.6,1.6-1.4,1.6-2.5s-.2-1.2-.6-1.8c-.7-.9-1.7-1.3-2.9-1.3h-6v6.2h2.5,0Z"/>
    <path class="cls-4" d="m97.4,157.6h-2.2v-19h1.8l.3.7,6.6,14.5,6.5-14.5.3-.7h1.8v17.9s0,1.1,0,1.1h-2.2v-12.7s-5.4,12-5.4,12l-.3.7h-1.5l-.3-.7-5.4-12v12.7Z"/>
    <path class="cls-4" d="m137.2,138.6v2.2h-11.2v6.2h8.2v2.2h-8.2v6.2h11.2v2.2h-13.4v-19h13.4Z"/>
    <path class="cls-4" d="m149.5,157.6h-2.2v-19h1.7l.3.5,9.7,13.9v-13.2s0-1.1,0-1.1h2.2v17.9s0,1.1,0,1.1h-1.7l-.3-.5-9.7-13.9v14.4Z"/>
    <path class="cls-4" d="m184.5,148.3c1.3,1.1,2,2.4,2,4s-.4,2.4-1.3,3.4c-1.1,1.3-2.6,2-4.4,2h-8.3v-17.9s0-1.1,0-1.1h7.2c1.4,0,2.7.4,3.8,1.3,1.3,1.1,1.9,2.4,1.9,4,0,1.5-.6,2.8-1.8,3.8.3.2.6.4.8.6Zm-4.8-1.3c.7,0,1.4-.2,2-.6,1-.6,1.5-1.5,1.5-2.5s-.2-1.2-.6-1.8c-.7-.9-1.7-1.3-2.9-1.3h-5v6.2h5Zm-5,8.4h6c.7,0,1.4-.2,2-.6,1-.6,1.5-1.5,1.5-2.5s-.2-1.2-.6-1.8c-.7-.9-1.6-1.3-2.9-1.3h-6v6.2Z"/>
    <path class="cls-4" d="m209.4,138.6v2.2h-11.2v6.2h8.2v2.2h-8.2v6.2h11.2v2.2h-13.4v-19h13.4Z"/>
    <path class="cls-4" d="m233.4,156.2l.4,1.4h-2.4l-.2-.8c-.6-2-1.2-3.6-1.7-4.7-.6-1.3-1.4-2.2-2.3-2.9h-5.6v8.4h-2.2v-17.9s0-1.1,0-1.1h8.2c1.5,0,2.7.4,3.8,1.3,1.3,1.1,2,2.4,2,4s-.1,1.2-.3,1.8c-.5,1.4-1.5,2.4-3,3.1,1.1,1.3,2.2,3.8,3.3,7.4Zm-9.3-9.2h3.6c.7,0,1.3-.2,1.9-.5,1-.6,1.6-1.4,1.6-2.5s-.2-1.2-.6-1.8c-.7-.9-1.7-1.3-2.9-1.3h-6v6.2h2.5,0Z"/>
    <path class="cls-4" d="m243.2,157.6h-2.4l.7-1.6,7.3-16.8.3-.7h1.5l.3.7,7.3,16.8.7,1.6h-2.4l-.3-.7-6.2-14.4-6.2,14.4-.3.7Z"/>
    <path class="cls-4" d="m278.3,138.6h1.1v2.2h-6.1v16.8h-2.2v-16.8h-6.2v-2.2h13.4Z"/>
    <path class="cls-4" d="m287.8,138.6h2.3v1.1s0,11.5,0,11.5c0,.9.3,1.7.9,2.5.9,1.1,2.1,1.6,3.6,1.6s1.9-.3,2.7-.9c1.2-.8,1.7-1.9,1.7-3.2v-12.7h2.3v1.1s0,11.5,0,11.5c0,1.6-.6,3-1.7,4.2-1.3,1.4-3,2.2-5,2.2s-3.3-.6-4.6-1.7c-1.4-1.3-2.1-2.8-2.1-4.6v-12.7Z"/>
    <path class="cls-4" d="m314.1,157.6h-2.2v-19h1.7l.3.5,9.7,13.9v-13.2s0-1.1,0-1.1h2.2v17.9s0,1.1,0,1.1h-1.7l-.3-.5-9.7-13.9v14.4Z"/>
    <path class="cls-4" d="m344.4,147h8.3v1.1c0,2.7-.9,5-2.6,6.9-1.6,1.8-3.5,2.6-5.8,2.6-2.2,0-4.2-.9-5.9-2.7-1.7-1.9-2.6-4.2-2.6-6.9,0-2.7.9-5,2.6-6.9,1.6-1.8,3.6-2.6,5.8-2.6s2.5.3,3.8.9c1.6.8,2.7,1.9,3.4,3.2l-2,1c-.2-.4-.6-.9-1-1.3-1.2-1.1-2.6-1.6-4.1-1.6-1.6,0-3,.6-4.1,1.9-1.4,1.4-2,3.2-2,5.4s.5,3.5,1.6,4.9c1.2,1.6,2.8,2.4,4.6,2.4,1.7,0,3.1-.7,4.4-2.1,1.2-1.3,1.7-2.6,1.7-4.1h-6.1v-2.2Z"/>
    <path class="cls-4" d="m415.8,157.6v-19h7.4c2.1.2,3.8,1.2,5.2,2.9,1.5,1.9,2.2,4.1,2,6.6.2,2.5-.4,4.6-1.9,6.6-1.4,1.8-3.2,2.8-5.3,3h-7.4Zm7.2-2.2c1.4-.1,2.6-.8,3.6-2,1.2-1.5,1.7-3.2,1.5-5.3h0c.1-1.8-.2-3.4-1.1-4.7-1-1.5-2.3-2.4-4-2.5h-5v14.6h5Z"/>
    <path class="cls-4" d="m440,138.6h2.2v19h-2.2v-19Z"/>
    <path class="cls-4" d="m455,157.6h-2.2v-19h1.7l.3.5,9.7,13.9v-13.2s0-1.1,0-1.1h2.2v17.9s0,1.1,0,1.1h-1.7l-.3-.5-9.7-13.9v14.4Z"/>
    <line class="cls-5" x1="381.7" x2="381.7" y1="138.8" y2="157.8"/>
  </g>
  <g id="Ebene_4">
    <path class="cls-3" d="m492.7,140.3v-2.2h11.9l-.9,1.6c-.7,1.2-1.3,2.2-1.8,3.3-2.4,4.6-4,9-4.8,13.4l-.2.9h-2.2l.2-1.3c0-.2,0-.4.1-.6,1-4.9,2.9-10,5.8-15.1h-8.1Z"/>
    <path class="cls-3" d="m510.4,140.3v-2.2h11.9l-.9,1.6c-.7,1.2-1.3,2.2-1.8,3.3-2.4,4.6-4,9-4.8,13.4l-.2.9h-2.2l.2-1.3c0-.2,0-.4.1-.6,1-4.9,2.9-10,5.8-15.1h-8.1Z"/>
    <path class="cls-3" d="m530.8,144.5h-2.2v-1.1c0-1.3.4-2.4,1.3-3.4,1.2-1.3,2.6-2,4.5-2s2.7.4,3.8,1.3c1.3,1.1,1.9,2.4,1.9,4s-.6,2.9-1.7,4.2c-.8.9-2.2,2.1-4.2,3.6-.7.5-1.1.8-1.4,1.1-1.4,1.1-2.1,2-2.1,2.8h9.4v2.2h-11.6v-1.1c0-1.3.5-2.5,1.4-3.8.7-.9,1.9-2,3.8-3.5.8-.7,1.4-1.2,1.8-1.5,1.6-1.4,2.4-2.8,2.4-3.9s-.2-1.3-.7-1.8c-.7-.9-1.7-1.3-2.9-1.3s-1.4.2-2.1.5c-1,.6-1.5,1.5-1.5,2.6v1.1Z"/>
    <path class="cls-3" d="m549,140.3v-2.2h10.2l-1,1.7-3,5.1c.7,0,1.4.5,2.2,1.4,1.2,1.4,1.9,3,1.9,4.8s-.5,3-1.6,4.2c-1.2,1.4-2.7,2.1-4.5,2.1s-2.3-.3-3.3-.9c-1.3-.8-2.1-1.9-2.3-3.3l-.2-1.3h2.2v.9c.2.4.4.7.6,1.1.7.9,1.7,1.4,3,1.4s1.6-.3,2.3-.8c1-.8,1.5-1.9,1.5-3.3s-.2-1.6-.7-2.3c-.8-1.1-1.8-1.6-3.1-1.6h-1.9l1-1.7,3-5.1h-6.4Z"/>
    <path class="cls-3" d="m577.9,138.1v2.2h-6.5l-.7,2.9c.7-.4,1.5-.5,2.3-.5,1.5,0,2.8.6,3.9,1.7,1.4,1.4,2.1,3.3,2.1,5.6s-.6,3.8-1.7,5.2c-1.2,1.5-2.6,2.2-4.3,2.2s-2.4-.4-3.5-1.2c-1.2-1-1.9-2.1-2.2-3.6l-.2-1.3h2.2v.9c.2.5.4,1,.7,1.5.7,1,1.7,1.5,2.8,1.5s1.7-.4,2.4-1.1c1-1,1.5-2.4,1.5-4.1s-.3-2.2-.8-3.1c-.8-1.3-1.8-2-3-2s-.9.1-1.4.3c-.9.4-1.5,1-1.8,1.8l-.2.9h-2.4l.4-1.3h0s1.8-7.6,1.8-7.6l.2-.8h8.2Z"/>
  </g>
</svg>