<?xml version="1.0" encoding="utf-8"?>
<svg xmlns="http://www.w3.org/2000/svg" data-name="Ebene 1" id="Ebene_1" viewBox="0 0 274.9 92.2">
  <defs>
    <style>
      .cls-1, .cls-2 {
        fill: none;
      }

      .cls-1, .cls-3 {
        isolation: isolate;
      }

      .cls-4 {
        fill: #419f56;
      }

      .cls-5 {
        fill: #43a156;
      }

      .cls-6, .cls-3 {
        fill: #35393a;
      }

      .cls-2 {
        stroke: #35393a;
        stroke-miterlimit: 10;
      }

      .cls-3 {
        font-family: Adam-Light, Adam;
        font-size: 23px;
        font-weight: 300;
        letter-spacing: .2em;
      }
    </style>
  </defs>
  <g class="cls-1">
    <text class="cls-3" transform="translate(0 60.7)">
      <tspan x="0" y="0">WIR</tspan>
    </text>
  </g>
  <path class="cls-6" d="m54,52.9v-7.8h6.9c1.1,0,2.1.3,3,1,1.1.8,1.6,1.9,1.6,3.2s-.3,1.8-1,2.6c-.9,1-2.1,1.5-3.6,1.5h-6v7.4h-.9v-7.9Zm6.9-.5c.8,0,1.6-.2,2.3-.7,1-.6,1.4-1.5,1.4-2.5s-.2-1.4-.7-2c-.7-.9-1.7-1.3-2.9-1.3h-6v6.5h6-.1Z"/>
  <path class="cls-6" d="m80.1,45.1v.9h-10.1v6.4h7.4v.9h-7.4v6.4h10.1v.9h-11v-15.6h11v.1Z"/>
  <path class="cls-6" d="m92.8,53.8c1,1.1,1.9,3.2,2.9,6.3l.2.6h-1v-.3c-.8-2.2-1.4-3.8-2-4.8-.5-.9-1.1-1.6-2-2.2h-5.8v7.4h-.9v-15.7h6.9c1.1,0,2.1.3,3,1,1.1.8,1.6,1.9,1.6,3.2s-.2,1.3-.5,1.9c-.6,1.1-1.6,1.8-2.9,2.1.2.2.4.4.6.6l-.1-.1Zm-1.7-1.3c.8,0,1.6-.2,2.3-.7,1-.6,1.4-1.5,1.4-2.5s-.2-1.3-.7-1.9c-.7-.9-1.7-1.3-3-1.3h-6v6.5h6v-.1Z"/>
  <path class="cls-6" d="m108,49.2c0-.7-.3-1.3-.8-1.9-.8-.9-1.9-1.3-3.3-1.3s-1.8.2-2.6.7c-1,.6-1.5,1.5-1.5,2.5s0,.6.3.9c.4.6,1.5,1.3,3.2,1.9,1.9.8,3.1,1.2,3.5,1.4,1.8.9,2.6,1.9,2.6,3.1,0,.9-.4,1.8-1.2,2.6-1.1,1-2.5,1.6-4.3,1.6s-2.7-.4-3.8-1.2c-1.1-.8-1.7-1.8-1.7-3h.9c0,.7.3,1.4.9,2,.9.8,2.2,1.3,3.7,1.3s2.1-.3,2.9-.8c1.1-.7,1.7-1.5,1.7-2.5s-.1-.6-.3-.9c-.4-.6-1.5-1.3-3.2-2-1.9-.8-3.1-1.2-3.5-1.4-1.8-.9-2.6-1.9-2.6-3.1s.4-1.8,1.1-2.6c1-1.1,2.3-1.6,4-1.6s2.4.4,3.4,1.1c1.1.8,1.7,1.8,1.7,3.1h-.9l-.2.1Z"/>
  <path class="cls-6" d="m114.2,47.3c1.3-1.5,3-2.2,4.8-2.2s3.5.7,4.8,2.2c1.4,1.5,2.1,3.4,2.1,5.6s-.7,4.1-2.1,5.6c-1.3,1.5-3,2.2-4.8,2.2-1.9,0-3.5-.8-4.8-2.2-1.4-1.5-2.1-3.4-2.1-5.6s.7-4.1,2.1-5.6Zm.6,10.4c1.2,1.4,2.6,2.1,4.3,2.1s2.9-.6,4.1-1.9c1.3-1.4,1.9-3,1.9-5s-.6-3.5-1.7-4.8c-1.2-1.4-2.6-2.1-4.3-2.1-1.6,0-2.9.6-4.1,1.9-1.3,1.4-1.9,3-1.9,5s.6,3.5,1.7,4.8Z"/>
  <path class="cls-6" d="m130.9,60.7h-.9v-15.6h.7v.2c.1,0,9.9,13.6,9.9,13.6v-13.8h.9v15.7h-.7v-.2c-.1,0-9.9-13.6-9.9-13.6v13.8-.1Z"/>
  <path class="cls-6" d="m145.4,60.7h-1l.3-.6,6.4-14.7v-.3h.7v.3c.1,0,6.6,14.7,6.6,14.7l.3.6h-1v-.3c-.1,0-6.1-13.8-6.1-13.8l-6,13.8v.3h-.2Z"/>
  <path class="cls-6" d="m161.6,45.1h.9v14.7h8.3v.9h-9.2v-15.6Z"/>
  <path class="cls-6" d="m183.8,53.5c1.1.8,1.6,1.9,1.6,3.1s-.3,1.8-1,2.6c-.9,1-2.1,1.5-3.5,1.5h-6.9v-15.7h6c1.1,0,2.1.3,3,1,1.1.8,1.6,1.9,1.6,3.1s0,.4,0,.7c-.2,1.2-.9,2.1-2,2.8.5.2,1,.4,1.4.8l-.2.1Zm-3.9-1c.8,0,1.6-.2,2.3-.7,1-.6,1.4-1.5,1.4-2.6s-.2-1.3-.7-1.9c-.7-.9-1.7-1.3-2.9-1.3h-5.1v6.5h5.1-.1Zm-5,7.4h6c.8,0,1.6-.3,2.2-.7,1-.6,1.4-1.5,1.4-2.5s-.3-1.3-.8-1.9c-.7-.9-1.7-1.3-2.9-1.3h-6v6.5l.1-.1Z"/>
  <path class="cls-6" d="m200.1,45.1v.9h-10.1v6.4h7.4v.9h-7.4v6.4h10.1v.9h-11v-15.6h11v.1Z"/>
  <path class="cls-6" d="m212.8,53.8c1,1.1,1.9,3.2,2.9,6.3l.2.6h-1v-.3c-.8-2.2-1.4-3.8-2-4.8-.5-.9-1.1-1.6-2-2.2h-5.8v7.4h-.9v-15.7h6.9c1.1,0,2.1.3,3,1,1.1.8,1.6,1.9,1.6,3.2s-.2,1.3-.5,1.9c-.6,1.1-1.6,1.8-2.9,2.1.2.2.4.4.6.6l-.1-.1Zm-1.7-1.3c.8,0,1.6-.2,2.3-.7,1-.6,1.4-1.5,1.4-2.5s-.2-1.3-.7-1.9c-.7-.9-1.7-1.3-3-1.3h-6v6.5h6v-.1Z"/>
  <path class="cls-6" d="m218.6,60.7h-1l.3-.6,6.4-14.7v-.3h.7v.3c.1,0,6.6,14.7,6.6,14.7l.3.6h-1v-.3c-.1,0-6.1-13.8-6.1-13.8l-6,13.8v.3h-.2Z"/>
  <path class="cls-6" d="m244.5,45.1h.5v.9h-5.5v14.7h-.9v-14.7h-5.5v-.9h11.5-.1Z"/>
  <path class="cls-6" d="m259.1,45.1v.9h-10.1v6.4h7.4v.9h-7.4v6.4h10.1v.9h-11v-15.6h11v.1Z"/>
  <path class="cls-6" d="m271.8,53.8c1,1.1,1.9,3.2,2.9,6.3l.2.6h-1v-.3c-.8-2.2-1.4-3.8-2-4.8-.5-.9-1.1-1.6-2-2.2h-5.8v7.4h-.9v-15.7h6.9c1.1,0,2.1.3,3,1,1.1.8,1.6,1.9,1.6,3.2s-.2,1.3-.5,1.9c-.6,1.1-1.6,1.8-2.9,2.1.2.2.4.4.6.6l-.1-.1Zm-1.7-1.3c.8,0,1.6-.2,2.3-.7,1-.6,1.4-1.5,1.4-2.5s-.2-1.3-.7-1.9c-.7-.9-1.7-1.3-3-1.3h-6v6.5h6v-.1Z"/>
  <path class="cls-4" d="m112.7,6.9h1.1v.4c.1,0,3.4,14.9,3.4,14.9l5.6-15v-.3h.9v.3c.1,0,5.7,15,5.7,15l3.2-14.9v-.4h1.2v.6c-.1,0-3.8,16.6-3.8,16.6v.4h-.9v-.3c-.1,0-5.9-15.3-5.9-15.3l-5.7,15.3v.3h-.9v-.4c-.1,0-3.7-16.6-3.7-16.6v-.6h-.2Z"/>
  <path class="cls-4" d="m148.8,15.8V7h7.8c1.3,0,2.4.4,3.4,1.1,1.2.9,1.8,2.1,1.8,3.6s-.4,2.1-1.2,2.9c-1,1.1-2.4,1.7-4,1.7h-6.8v8.3h-1v-8.8Zm7.8-.5c.9,0,1.8-.3,2.5-.8,1.1-.7,1.6-1.7,1.6-2.9s-.3-1.6-.8-2.2c-.8-1-1.9-1.5-3.3-1.5h-6.8v7.3h6.8v.1Z"/>
  <rect class="cls-6" height="2.6" width="2.6" x="139.3" y="11.1"/>
  <rect class="cls-6" height="2.6" width="2.6" x="139.3" y="19.5"/>
  <rect class="cls-2" height="30.1" rx="5" ry="5" width="65.9" x="104.9" y=".5"/>
  <path class="cls-5" d="m86.1,90.3h-.3c-.1,0-.3,0-.4-.1h-.1l.1.2h-.1c-1.4-.6-2.5-1.7-3.4-2.9l-.7-.9h-.1c-.3-.5-.6-.8-.7-1.1h0c-.2.8-.9,3.1-1.2,4.7v.5h0c0,.2,0,.3.1.3-.1,0-.1.1-.2.2l-.4.2h-.8s0-.2-.1-.2c0,0,0,.1-.1.1h-.4c-.2,0-.2-.3-.2-.6v-.2c0-.5.1-1,.1-1.1.6-4.4,3.8-13,4.6-15.7,0-.2.1-.4.1-.6v-.2h0c0-.3.3-.5.4-.5.1-.1.3-.1.5-.1s.9.3,1,.4c.3.1.4.3.4.6,0,1.3-1.9,6.5-2.4,8,2.4-1.7,4.4-3.3,6.6-5.1l1-.8c.2-.2.6-.5.9-.7h.1c.1,0,.2,0,.2.2,0,.3-.2.5-.2.8-.1.4-.4.8-.6,1.1-.6.8-1.1,1.2-1.9,1.8-1.7,1.4-3.8,2.9-5.3,4.1l-.7.5c-.1,0-.3.2-.4.3v.2c.9,1.9,2.7,4.1,4.4,5.8.4.3.6.5.8.9h-.1l-.5-.1Zm-9,.4h0v-.2h0v.2h0Zm.3-1.8v.2h0s0,.1,0,0c0,0-.1,0-.1-.2v.3h0v.1h0v.3l.1-.2v-.8.3Zm0-.8v-.1h0v.3l.1-.2h-.1Zm.1,0l-.1.2v.1h0v.4-.2.2l.1-.6v-.2.1Zm1.1-4.8l-.2.7c0-.1.2-.4.2-.5v-.2Zm2.7-.5h-.2c-.1,0,0,0-.1.1.1,0,.3,0,.4-.1h-.1Zm0-.2h.2s.1,0,.1-.1c0,0-.3,0-.4.1h.2-.1Zm.4,0h0l-.2.2q-.2,0-.2.2s.1-.1.2-.1.1-.2.2-.2v-.1Zm.2-.3s-.2,0-.3.2h.2l.1-.1v-.1Zm.3,0c.1,0,.2-.1.4-.2l.2-.2h0v.1h0c0-.1-.2,0-.2,0h-.1l-.3.3Zm2.4,7.1v-.1h-.2s-.1-.1-.1-.2c-.2,0-.6-.2-.7-.3.1.1.3.2.3.3h-.2s.1.2.3.2h0c.1,0,.2.1.3.1h0c-.1-.1-.3-.2-.3-.3.1.2.3.2.4.3h.2Zm-.9-.8l.3.1h0s-.2-.2-.3-.2h0v.1Zm.4.1h.1c.1,0,0,0,0,0h-.2.1Zm.2.6h-.1l.1.2h.1-.1v-.2Zm.5,0v.1h.1s-.1,0-.2-.1h.1Zm.3.3h0c.1,0,.3.1.4.2l-.3-.3s0-.2-.1-.2v.1c0,.1,0,0,0,0v.2Zm2.7-11.8s-.1,0-.1.1h.1v.2s.2-.2.3-.2h-.2l-.1-.1Z"/>
  <path class="cls-5" d="m95.9,82.3v.8c-.1,0,0-.3,0-.3v.3h.1v.4l-.7,1.1c-.4.7-1.8,2.8-2.7,3.6-.2.2-.5.4-.8.5h-.7c-.1,0-.3-.1-.4-.2-.5-.2-.9-.8-.9-1.5v-.2c0-.8.1-1.5.3-2.2-.6,1-1.8,3.1-2.8,3.3,0,0-.5-.3-.6-.3-.4-.2-.5-.1-.8-.8v-1.5c.3-1.7,2.5-4.9,4.2-4.9s.8.3,1.1.4c.1-.1.3-.7.7-.7h.3c.4,0,.8.4.8.5,0,.2,0,.8-.2,1-.4.7-1.4,4.9-1.4,6.1v.2c.9-.4,3.5-4.6,4.2-5.6h.3Zm-9.5,2.1c.1,0,.2-.2.2-.3-.1,0-.2.2-.2.3Zm.2-.3v-.2.2h0Zm4-2.2c-.4,0-1.2,1-1.9,2-.5.7-.9,1.8-1.2,2.5v.5h0l1.1-1.7c.7-1.1,1.6-2.5,2.2-3.2h-.2v-.1Zm.7,3.7v-.1c0-.1,0,0,0,0v.2-.1Zm.2.8v-.3c0,.1,0,.2-.1.3h.1Zm.2-.4c-.1.3,0,.7-.1,1v.2h0c.1-1.1.6-3.5,1.1-4.8-.2.2-.8,2.5-.8,3,0,.2-.1.2-.1.4h0l-.1.2Zm0-.4v-.2.4-.3.1Zm0-1.2h0v-.3c0-.1,0,0,0,0h0c0,.1,0,.2-.1.4l.1-.1Zm.1,1h0l.1-.1h0l-.1.1Zm.1-2.2v-.2.5q-.1,0,0,0v-.3Z"/>
  <path class="cls-5" d="m94.1,88.8v-.3c0-.1,0,0,0,0v-.8l.1-.1v-.3c.5-2.2,1-3.8,1.6-6,0-.1.1-.3.1-.5s.1-.2.1-.2c0,0,.2-.1.3-.2,0,0,.5.2.7.2.1,0,.3.1.4.3.1.2.2.3.2.5v1.1c.6-.8,2-1.8,2.8-1.8s.4.1.5.3v.1h0c-.1,0-.3,0-.9.4q-.1,0-.1.1l-.2.2s-.2,0-.2.2l-.6.6c0,.1-.2.2-.2.2-.1.1-.2.2-.3.4h0s-.1.1-.1.2l-.1.2h-.1v.2h-.1v.2s-.1.2-.1.3c-.1.1-.2.2-.3.5h0v.1h0v.2l-.1.1v-.1h0v-.2l-.2.3v.3l-.1.3s0-.2.2-.3v-.3.3h-.1v.4-.1c-.1,0-.2.2-.2.3h0v-.1h0v.1h0l-.2.3v.6s0,.4-.1.4v.2l-.1.4v-.2l.1-.3v-.3s0-.2.1-.3v-.4s0-.1.1-.2v-.4.6h0v.1c0,.1.1-.2.2-.2v.3h0v.4c-.1,0-.1.2-.1.2h0v-.1h0v.1c0,.1,0,0,0,0h0v-.2.4s-.2.3-.2.4v-.1h0c0,.1,0,0,0,0h0v-.1h0v-.2h0l-.2.2v.4s0,.2-.1.2h-.2s-.1,0-.2-.1h-.2c-.1,0-.7,0-.7-.2l-1.2.8Zm1-.6v.1h0v.2-.4h-.1q0-.1.1-.2h0v.3Zm.3-.2s-.1,0-.1.1h0l.1-.1Zm0-2h0Zm.5.6v.3l.1-.4h0l-.1.1Zm1.8-3.3v-.2.2h-.1.2-.1Zm.2,0h.1v-.1.1h-.1Zm.2-1.1h0s.2-.1.2-.2h-.1l-.1.2Zm.9-.5c-.1,0-.3.2-.3.3.1,0,.2-.2.3-.3Z"/>
  <path class="cls-5" d="m102.7,84.2c0,.2-.3.5-.3.5,0,.2,0,.3-.2.5v.2c-.4.9-.9,2.6-1.1,3.5v.2c0,.1-.2.2-.3.2h-.3c-.1,0-.6-.1-.7-.2v-.1h-.2l-.1-.2h0v-.4c.4-2.3,1.4-5.5,2-8v-.4s.1-.1.1-.2.3-.2.4-.2.5.2.6.2q.2,0,.4.2h.1v.2s.1.2.1.3v.2c0,.5,0,.6-.1,1,.6-.7,2.1-1.9,3-1.9s.4.3.4.4l-.6.3h0s-.1,0-.1.1c0,0-.1,0-.3.2l-.2.2h0l.2-.2h0c0,.1-.1.2-.2.2,0,0-.1,0-.1.2-.3.3-.4.3-.4.4l-.1.1s0,.1-.1.1l-.6.8-.2.2h0s0,.1-.2.2v.1l-.2.2c-.3.4-.7,1.1-.8,1.6v-.2s.2-.5.4-.7c.1-.3.4-.7.5-.8v-.2c.5-.5,1.1-1.4,1.9-2,0,0,0,.2-.1.1-.6.5-1.7,2.1-2.2,2.8l-.4.3Zm-2.1,1.7h0Zm0,3.2h.2c0-.1-.1,0-.1,0h-.1Zm.2-.5h-.2v.2l.2-.2Zm.2-.5v-.4c.1,0,0,0,0,0v.4Zm.2,0h0v-.2l-.1.2c0,.1,0,0-.1.2h0c.1-.1.2-.1.2-.2Zm.6-2.2h0v.4s.1-.2.2-.2v-.1l-.2-.1Zm-.2.4v.3-.4c.1,0,0,0,0,0h0v.1Zm1.4-3.8s-.1,0-.1.1v.2h0v-.4l.1.1Zm0,.6v-.2.2h-.1c0,.1.2,0,.2,0h-.1Zm.2,0h.1v-.1.1h-.1Zm.2-1.1h-.1s.2-.1.2-.2h-.1v.2Zm.9-.5s-.3.2-.3.3l.3-.3Z"/>
  <path class="cls-5" d="m110.7,84c.2-.2.5-.6.5-.6,0,0,.1-.1.1,0l-.1.2-2,2.8c-.5.6-1.9,2.3-2.8,2.3,0,0-.5,0-.5-.1-.1,0-.3-.2-.5-.2-.6-.3-.7-1.2-.7-1.9,0-1.9,1.2-3.6,1.8-5.3,0-.2.1-.2.4-.2s.2,0,.2,0c.6.2.9.4.9,1h0c0,.6-.5,1.7-.8,2.5v.2c-.4.8-.6,1.6-.7,2.3v.8h.2c.9-.6,3.5-4.3,4.4-5.4,0,0,0,.2-.1.5h0l-.2.5c.1-.2.2-.3.3-.3v.5h0l-.3.7-.1-.3Zm-5.2.5h0v.1h0s.1-.1.1-.2l-.1.1Zm0,.2s-.1.1-.1.2h0l.1-.2h0Zm.6,1.2h0v-.2s-.1,0-.1.2,0,.1,0,.1h.1c.1,0,0,0,0,0v-.1Zm0,.6v.2-.6h0v.4Zm.1-.2c0-.1.1-.3.1-.3,0,0,0-.1,0,0v.4l-.1-.1Zm.2-.9h-.1s.1,0,.1-.1v.1Zm0,.3v-.1h0v.1Zm1,2.4h-.1l-.3.2s.2-.1.3-.2l.2-.1-.1.1Zm1.7-8.6c-.1.4-.2.4-.5.6-.2.2-.4.2-.6.2h-.2c-.2-.1-.4-.1-.5-.3-.1-.2-.1-.4-.1-.5,0-.7.9-.6,1-.7.4,0,.9.3.9.7Zm-1,7.7h-.1v.3c.2-.2.4-.3.4-.4v-.1s-.1,0,0,0v.2h-.3Zm.4-.6h-.1v.1c0,.1,0,0,0,0l.1-.1Zm.1.2v-.2c.1,0,0,0,0,0v.2Zm.2-.4v.1s0-.2.2-.3c-.1,0-.2,0-.2.2Z"/>
  <path class="cls-5" d="m111.6,88.3c.8,0,2.8-2.4,3.4-3.1.7-1,1.5-2,2-2.6v.2-.1c0-.1,0,.2,0,.3v-.2c.1,0,.2.2.2.2.1,0,0,.2.1.2s-.4.7-.4.8l-.6.8c-.8,1-3,4.3-4.8,4.3s-2.3-1.4-2.3-2.8,0-.3,0-.5c.1-2,1.6-5.2,3.7-5.8.5,0,2,.6,2,1.3h0c0,1.8-1.6,2.8-2.8,2.8h-.4c-.1.3-.6,1.9-.6,2.8v.3c0,.4.2.8.5.8v.3Zm-1-1.2v.2h.1s0-.1-.1-.2Zm.2-.2v.2-.3s-.1,0-.1.1h.1Zm.2-.3c0-.7.3-1.6.5-2.2,0,.1-.1.3-.1.4v.3c-.1,0,0,0,0,0v.1s-.1.2-.1.3h0v-.3c.1-.2.4-.9.4-.9h0c-.1.5-.3,1-.3,1.5v-.4s.1,0,.1.1v1l-.5.1Zm1.1-3.5h-.2.2Zm.1,0v.2c.6-.2,1.5-1.1,1.5-1.8s0,0,0,0c-.5.4-.9.8-1.4,1.7l-.1-.1Zm0-.3h0Zm3.7,2.2h0s.2,0,.2-.1h-.1l-.1.1Z"/>
  <path class="cls-5" d="m115.2,88.8v-.3c0-.1,0,0,0,0v-.8l.1-.1v-.3c.5-2.2,1-3.8,1.6-6,0-.1.1-.3.1-.5s.1-.2.1-.2c0,0,.2-.1.3-.2,0,0,.5.2.7.2.1,0,.3.1.4.3.1.2.2.3.2.5v1.1c.6-.8,2-1.8,2.8-1.8s.4.1.5.3v.1h0c-.1,0-.3,0-.9.4q-.1,0-.1.1l-.2.2s-.2,0-.2.2l-.6.6c0,.1-.2.2-.2.2-.1.1-.2.2-.3.4h0s-.1.1-.1.2l-.1.2h-.1v.2h-.1v.2s-.1.2-.1.3c-.1.1-.2.2-.3.5h0v.1h0v.2l-.1.1v-.1h0v-.2l-.2.3v.3l-.1.3s0-.2.2-.3v-.3.3h-.1v.4-.1c-.1,0-.2.2-.2.3h0v-.1h0v.1h0l-.2.3v.6s0,.4-.1.4v.2l-.1.4v-.2l.1-.3v-.3s0-.2.1-.3v-.4s0-.1.1-.2v-.4.6h0v.1c0,.1.1-.2.2-.2v.3h0v.4c-.1,0-.1.2-.1.2h0v-.1h0v.1c0,.1,0,0,0,0h0v-.2.4s-.2.3-.2.4v-.1h0c0,.1,0,0,0,0h0v-.1h0v-.2h0l-.2.2v.4s0,.2-.1.2h-.2s-.1,0-.2-.1h-.2c-.1,0-.7,0-.7-.2l-1.2.8Zm1-.6v.1h0v.2-.4h-.1q0-.1.1-.2h0v.3Zm.3-.2s-.1,0-.1.1h0l.1-.1Zm0-2h0Zm.5.6v.3l.1-.4h0l-.1.1Zm1.7-3.3v-.2.2h-.1.2-.1Zm.2,0h.1v-.1.1h-.1Zm.2-1.1h0s.2-.1.2-.2h-.1l-.1.2Zm.9-.5c-.1,0-.3.2-.3.3.1,0,.2-.2.3-.3Z"/>
  <path class="cls-5" d="m128.9,83h.1v.2s-.2.7-.9,1.7h0l-.1.1h0c0,.1-.1.2-.2.3-.2.3-.7,1-.7.9v-.1l-.1.1h.1c0,.2-.5.2-.5.6h.1q0-.2.3-.3c-.6.8-1.4,1.7-1.9,2v-.1s-.1.2-.2.2h.2-.1c0,.1,0,0,0,0-.1,0-.9.9-1.9.9s-2.2-1.6-2.2-2.7.4-2.6.9-3.6c.9-1.9,2.4-3.4,3.3-3.4h.1c.3,0,1.8.5,1.8,1.3v.2h0c-.2,1.4-1.6,2.8-3.4,2.8-.3.5-.9,2.4-.9,3.5s.1,1,.4,1h.1c.9,0,3.7-3.5,4.8-5l.2-.2c.5-.6.6-.9.8-1.1v.3h.1v.2h0v.2h-.2Zm-8,4.7c0,.1.1.4.1.3,0,0-.1-.5-.1-.4h0v.1Zm1.1-4.7h.1-.1Zm.1,4.2c0,.2,0,.4.1.4h0v-.3h0l-.1-.1Zm.2,0v.3h0c0,.4,0,.8.1.8v-1.2.1h-.1Zm.1-.2v-.5.5Zm0-1v.1-.3c.1,0,.1-.2.1-.2,0,.1-.1.3-.2.3v.1h.1Zm3.3-5.1c-.5,0-1.4,1.1-2,2.2.6,0,1.8-1.3,2-2.2Zm-1,7.7h0Zm.5-.6l-.2.2.2-.2.1-.2h-.1v.2Zm.8-.8h0l-.1.1h0c-.1,0,0,0,0,0l.2-.3s-.1.2-.2.2h.1Zm2.6-4v-.2c.1,0,0,0,0,0-.1.2-.2.3-.1.3h.1v-.1Z"/>
  <path class="cls-5" d="m128.4,86.6c.1,0,.3,0,.5.1l.2.2v.3c0,.3,0,.6-.2.8,0,0-.1.1-.2.2l-.4.2h-.2c-.4,0-.8-.3-.8-.8,0-.6.4-1,1-1h.2-.1Z"/>
  <path class="cls-5" d="m155.4,79.1v.4c0,.2,0,.3-.1.5,0,.2-.1.3-.2.5h0c0,.2-.2.4-.2.6v.2c-.1.2-.4,1.3-.4,1.5s0,.3-.1.5c0,.2,0,.4-.2.6v.7c-.1,0-.1.1-.1.2v.2h0v-.1s0,.3-.1.5h0v.2h0v.2h0v.2c-.4,1.3-.6,2.6-.9,4v.7-.2c0-.2,0,0,0,0v.1h0v.5c0,.2,0,.6-.1.6h0v.3h-.4q0,.2.1.2h-.2c-.5,0-.6-.5-.8-.6-.3-.2-.4-.7-.4-.9,0-.6,0-.7.1-1.2,0-.4.2-.9.2-1.3v-.3c0-.1,0-.2.1-.3v-.9c.1-.2.1-.4.8-2.7.2-.6.3-1.2.5-1.8v-.4c0-.3.5-1.9.6-2v-.5c.1,0,.2-.1.2-.1.1-.6.4-1.5.5-2,0-.2.2-.4.2-.6.1-.7.2-.8.2-.9l.2-1.3c-1.3,1.8-2,3-3.2,5.2-.1.2-.2.2-.2.2l-.3.6-.3.3c0-.1.5-1.2.5-1.2-.2,0-.2.6-.5.9,0,.2,0,.4-.1.6h0c-1.4,2.6-3.2,6.6-4.3,8.3,0,.1-.3.5-.4.7,0,.1-.2.1-.3.2-.2,0-.3.2-.5.2h-.9c-.1,0-.8-.4-.9-.4v-.2c-.2-.1-.2-.3-.3-.5-.2-.2-.2-.5-.2-.8v-2.7c.2-2.7.5-4.3.7-6.5v-2.2c0-.8,0-2-.3-2.6h0c-.3,0-.7.4-.8.6-2.6,3.6-3.6,8.4-4.3,12.8,0,.3-.1.8-.1,1v.2c0,.3,0,.5.1.8v.2c0,.3-.5.3-1,.3h-.9c-.2,0-.5-.5-.5-1.2s0-.4,0-.6c0-.9.2-1.9.2-2.4.6-3,1.4-6,2.7-8.8.9-1.9,2.6-4.4,4.1-4.4s.8.3,1.1.5c1.3.4,1.7,2.1,1.7,3.8v1.9c-.2,3.4-.7,6.4-.8,9.5v.4h0l.7-1.2c1.4-2.8,2.6-5.2,3.7-7.3,1.8-3.4,3.3-6,4.8-7.4.1-.1.4-.2.5-.2h0c.3,0,1,.2,1.2.3.3.2.8.7.8.8h0v.2h0v.2c0,.1-.2.2-.2.3h.2v.7c-.1.6-.1.9-.3,1.4,0,.2-.3,1-.3,1.2v.2h0v1.1h0l-.6-.3Zm-2.7,7.9h0c0,.2-.2.6-.2.8,0,0,.1-.3.2-.3v-.4h0v-.1Zm.5,0v-.4h.2c0-.1,0-.3.1-.5h0c-.2.5-.2.8-.2.9h-.1Z"/>
  <path class="cls-5" d="m164.7,82.3v.8c-.1,0,0-.3,0-.3v.3h.1v.4l-.7,1.1c-.4.7-1.8,2.8-2.7,3.6-.2.2-.5.4-.8.5h-.7c-.2,0-.3-.1-.5-.2-.5-.2-.9-.8-.9-1.5v-.2c0-.8.1-1.5.3-2.2-.6,1-1.8,3.1-2.8,3.3,0,0-.5-.3-.6-.3-.4-.2-.5-.1-.8-.8v-1.5c.3-1.7,2.5-4.9,4.2-4.9s.8.3,1.1.4c.1-.1.3-.7.7-.7h.3c.4,0,.8.4.8.5,0,.2-.1.8-.2,1-.4.7-1.4,4.9-1.4,6.1v.2c.9-.4,3.5-4.6,4.2-5.6h.4Zm-9.5,2.1s.2-.2.2-.3c-.1,0-.2.2-.2.3Zm.2-.3v-.2.2h0Zm4-2.2c-.4,0-1.2,1-1.9,2-.5.7-1,1.8-1.2,2.5v.5h0l1.1-1.7c.7-1.1,1.6-2.5,2.2-3.2h-.2v-.1Zm.7,3.7v-.1c0-.1,0,0,0,0v.2-.1Zm.2.8v-.3c0,.1,0,.2-.1.3h.1Zm.2-.4c0,.3,0,.7-.1,1v.2h0c0-1.1.6-3.5,1.1-4.8-.2.2-.8,2.5-.8,3,0,.2-.1.2-.1.4h0l-.1.2Zm0-.4v-.2.4q0-.2.1-.3l-.1.1Zm0-1.2h0v-.3c0-.1,0,0,0,0h0c0,.1,0,.2-.1.4l.1-.1Zm0,1h0v-.1h0v.1Zm.2-2.2v-.2.5c-.1,0-.2,0,0,0v-.3Z"/>
  <path class="cls-5" d="m171.2,82.9v.2c-.1,0-.1.1-.1.1v-.2c.1,0,0,0,0,.1v.3c-.4.8-1.7,2.6-2.2,3.3-.1,0-.2.2-.2.2l-.3.4s-.2.2-.2.1c-.1.1-.2.2-.3.3-.5.5-1,.9-1.7,1.2,0,0-.4.2-.8.2h-.1c-.8,0-2-.5-2.3-1.2-.2-.4-.4-.9-.4-1.3v-.2c0-1.5.8-4.1,2.8-6.2.3-.2.5-.4.8-.5h.4c.3,0,1.3.4,1.5.5l.4.2c.2.2.4.4.4.7v.2c0,.3-.1.5-.2.8-.2.2-.2.4-.3.7,0,.2,0,.3-.2.4h-.3c-.1,0-.3,0-.4-.2-.2,0-.2-.3-.2-.5.2-.5.4-1,.5-1.5v-.2h-.2c-1.1.8-1.8,2.4-2.3,3.6v.2c-.1.1-.1.3-.2.4v.3c-.2.5-.4,1.2-.4,1.7s.1,1.1.6,1.1h.1c1.7-.6,4.1-4,5.3-5.7v.4-.2h.3v.2h0l.2.1Zm-8.2,4.5v-.2.1c0,.1,0,0,0,0v.1Zm1.3-.9v.2h0v-.2Zm2.2-4.6v-.2l-.4.5c-.2.3-.4.5-.5.8h0s-.1.2-.1.3v.2c-.2.3-.3.5-.4.7-.2.4-.7,1.9-.7,3s0,.6.1.8v-.8c0-.7.2-1.4.5-2.2,0-.2.1-.5.3-.8v-.2s0-.2.1-.2v-.2c.2-.5.5-1.1,1-1.6l.1-.1Zm-1.6,6.8h.2-.1c.1,0,.3,0,.4-.1h-.5v.1Zm3.5-2.1v.1l-.2.2.2-.2s0-.2.1-.2h-.1v.1Zm1.3-1.1s0-.2.2-.3l-.3.4c0,.1-.2.3-.2.3.2-.1.2-.3.3-.4Z"/>
  <path class="cls-5" d="m180.6,83.1h.1c0-.1,0,0,0,0h.1l-.2.2h.2q-.1.2-.2.5l.2-.3v.3c-.4.6-.7,1-1.2,1.6h0v.1c0,.1,0,0,0,0,0,0-.1,0-.1.1v.1h0l-.2.3h0l.2-.1c0,.2-.2.2-.2.4l-.2.2s-.2,0-.2.2c-.1,0-.2.1-.2.1,0,0,.2,0,.2-.1h0c-.2.2-.3.4-.5.7-.1.2-.2.3-.4.5,0,0-.2.3-.3.4-.1.2-.3.3-.4.5-.4.4-.8.7-1.1,1-.2.1-.4.2-.6.2h-.2c-.3,0-.6-.2-.9-.4-.2-.1-.4-.3-.4-.5h0v-1.1c.2-1.7,1.2-3.5,1.5-5.1v-.4c-1,.5-3.3,4.1-4.2,5.5,0,0,0,.1-.2.2s-.3.1-.5.1-1.1-.6-1.3-.6-.3-.4-.3-.6c0-.4,0-.7.2-1,.1-.5.9-2.7,1.1-3.2,1-2.9,2.1-5.9,2.6-8.1h.2c.2,0,0,0,.1,0,.3,0,.7.4.9.6.1,0,.1.5.1.8-.2,2.1-1.2,5-2.9,9.4.7-1.4,2.2-3.1,3.1-3.8h.2c.2-.1.4-.1.6-.1s1.2.3,1.5.6l.1.2s.2.5.2.6c0,.7,0,1.3-.2,1.9,0,0-.2.5-.2.6l-.8,2.5c-.1.3-.3,1.1-.3,1.3h0v.2c.3,0,1.8-1.9,3-3.6.7-.9,1.5-2,2.2-3v.6l-.2-.5Zm-9.2.2v.2h0v-.2Zm.5-2.3s.1-.1,0-.1l-.2.1h.2Zm1.6,1.8s.3-.3.4-.4c0,0-.1.1-.2.2l-.2.3v-.1Zm1.6,4.5h.1v-.2.1s-.2.1-.1.1Zm.3-1.2v.1h0v-.2.1Zm-.1.5h.1-.2.1Zm.2-2.3h0v.2-.1h0v-.1Zm.1,1.3h0v.2h0v-.2Zm.1-2h0c-.1,0-.2,0-.2.1v.1-.1h0l.2-.1Zm0,.8v.2-.2Zm0,1.8v-.1h-.1l.1.1Zm0-1.8v-.1h0v-.2.2h0v.1Zm.1.9h0Zm.5,3.5h0s-.2.1-.2.2l.2-.2Zm.1.2v.1s.2-.1.2-.2h0l-.2.1Zm.2-5.4v-.2c0-.1,0,0,0,0v.6-.4Zm.3,4.7v-.2l-.1.1v.2h.2l-.1-.1Z"/>
  <path class="cls-5" d="m181.1,88.3c.8,0,2.8-2.4,3.4-3.1.7-1,1.5-2,2-2.6v.2-.1c0-.1,0,.2,0,.3v-.2c.1,0,.2.2.2.2,0,0,0,.2.1.2s-.4.7-.5.8l-.6.8c-.8,1-3,4.3-4.8,4.3s-2.3-1.4-2.3-2.8,0-.3,0-.5c.2-2,1.6-5.2,3.7-5.8.5,0,2,.6,2,1.3h0c0,1.8-1.6,2.8-2.8,2.8h-.5c-.1.3-.5,1.9-.5,2.8v.3c0,.4.2.8.5.8l.1.3Zm-1-1.2v.2h.1s0-.1-.1-.2Zm.2-.2v.2-.3.1Zm.2-.3c0-.7.3-1.6.5-2.2,0,.1-.1.3-.2.4v.3c-.1,0,0,0,0,0v.4h0v-.3c.1-.2.3-.9.3-.9h0c-.2.5-.3,1-.4,1.5v-.4q.1,0,.1.1v1l-.3.1Zm1.1-3.5h-.2.2Zm.1,0v.2c.6-.2,1.5-1.1,1.5-1.8s0,0,0,0c-.5.4-.9.8-1.4,1.7l-.1-.1Zm0-.3h0Zm3.7,2.2h0s.2,0,.2-.1h0l-.2.1Z"/>
  <path class="cls-5" d="m194.9,82.6v.4h0l.1.2.2-.3-.3.5.3-.3v.2l-.7,1.2-.3.5-.1.1v-.2c0-.1-.2.2-.2.2h0v.2c0,.2-.2.2-.2.2h0c0,.1-.2.2-.2.2h0l.2-.2c-.5.8-1.1,1.5-1.7,2.3-.7.9-1.3,1.3-1.7,1.4-.3,0-.6,0-.9-.2-.6-.4-.7-.7-.8-1.2v-1.2s.2-1,.3-1.2c.3-1,.9-2.7,1-3.3v-.4h0c-.4.2-1.8,1.8-3.1,4.2-.3.5-.3.9-.7,1.5v.2c-.1.3-.4.3-.6.3-.3,0-.9-.7-1-.6,0,0-.1,0-.2-.1,0,0-.1,0-.1-.1v-.2c.7-2.5,1.4-5.3,1.7-6.5,0,0,0-.2.2-.2s.8.3.9.3c.1.1.4.4.4.5v.5h0c0,.5,0,1-.3,1.6.6-1,1.5-2.1,2.2-2.4.2-.2.4-.2.7-.2.6.2,1.5.5,1.6,1.2v.7c0,.6-.4,2-.6,2.6-.3,1-.9,2.4-.9,3.2v.1c.5,0,4.1-5.4,4.5-6l.3.3Zm-9.8,3.2v-.2c0-.1,0,0,0,0v.2Zm.5-.8v-.1.2h.1l-.1-.1Zm4.5,3.1v.4h0v-.4h0v-.3h0c0-.1,0,0,0,0v.1h0v-.6h0s.1,0,0,0h0v-.2.1h0v.1c0,.1,0,0,0,0v.1h0v.3h0v.4Zm.3-.7h0Zm.2-1.1h0v-.2h0v.2Zm.2-1.6v.2c0-.1.2-.3.2-.4,0,0-.1,0-.2.1v.1Zm.4-.4s-.1.2-.1.3l.1-.2v-.1h0c0-.1,0,0,0,0Zm1.2,3.2v.1l-.2.2.2-.2s0-.2.1-.2h-.1v.1Zm.6-.8h0l-.1.1h0l.2-.3s-.1.2-.2.2h.1Zm.5-.5s0-.1.1-.2c-.2.2-.3.2-.3.4l.2-.2Zm1.2-1.8h-.1c0,.1.1,0,.1,0v-.2.2Z"/>
  <path class="cls-5" d="m193.3,87h0s.1-.1.2,0h.6c.4,0,.6.4.6.7,0,.2,0,.4-.2.5-.3.2-.5.4-.8.4-.6-.2-1,0-1-1,0-.2.2-.7.4-.6h.2Zm3.9-11.6c.5,0,.8.1,1.3.4h0v.5l-.5,1.5c-.6,1.5-1.1,3.2-1.6,4.8l-.3.6-.2.6h-.1v.4-.1h0v.4h-.2v-.4c0,.1,0,.2-.1.3-.1.1,0,.1-.2.3v-.2.4-.1s-.6.1-.7.2h0s0,.1-.1.2v-.1s-.1.3-.1.4h0v-.2.2q-.1,0-.1-.1v-.3c0-.2,0-.4.1-.7h0c0-.6.2-1.2.4-1.7.3-1.2.5-2.3.9-3.3l1.3-3.7c0-.3.1-.5.4-.6h.2l-.4.3Z"/>
</svg>